{"title":"The Musketeers S01E04 The Good Soldier HDTV x264 AAC ESubs [GWC]","uid":9596420,"size":175560032,"categoryP":"video","categoryS":"tv_shows","magnet":"?xt=urn:btih:fe8c8631f348c08b9749bc896f801a8ffb86f65a&amp;dn=The+Musketeers+S01E04+The+Good+Soldier+HDTV+x264+AAC+ESubs+%5BGWC%5D&amp;tr=udp%3A%2F%2Ftracker.openbittorrent.com%3A80&amp;tr=udp%3A%2F%2Fopen.demonii.com%3A1337&amp;tr=udp%3A%2F%2Ftracker.coppersurfer.tk%3A6969&amp;tr=udp%3A%2F%2Fexodus.desync.com%3A6969","seeders":1,"leechers":0,"uploader":"canc232","files":1,"time":1392029403,"description":"The Musketeers S01E04 The Good Soldier HDTV x264 AAC ESubs [GWC]\n\n\nPlot :\nSet on the streets of 17th century Paris, series gives a contemporary take on the classic story about a group of highly trained soldiers and bodyguards assigned to protect King and country. \n\n\nSCREENS : &lt;a href=&quot;\nhttp://i.imgur.com/PBlSVDW.jpg&quot; rel=&quot;nofollow&quot; target=&quot;_NEW&quot;&gt;\nhttp://i.imgur.com/PBlSVDW.jpg&lt;/a&gt; &lt;a href=&quot;\nhttp://i.imgur.com/5kzoxfV.jpg&quot; rel=&quot;nofollow&quot; target=&quot;_NEW&quot;&gt;\nhttp://i.imgur.com/5kzoxfV.jpg&lt;/a&gt; &lt;a href=&quot;\nhttp://i.imgur.com/LKBkJNH.jpg&quot; rel=&quot;nofollow&quot; target=&quot;_NEW&quot;&gt;\nhttp://i.imgur.com/LKBkJNH.jpg&lt;/a&gt;\n\nMEDIA INFO :\nGeneral \nFormat : MPEG-4 \nFormat profile : Base Media \nFile size : 167 MiB \nDuration : 54mn 55s \nOverall bit rate : 426 Kbps \n\nVideo \nFormat : AVC \nFormat profile : &lt;a class=&quot;__cf_email__&quot; href=&quot;/cdn-cgi/l/email-protection&quot; data-cfemail=&quot;d49cbdb3bc9498e7fae4&quot;&gt;[email&amp;#160;protected]&lt;/a&gt;&lt;script cf-hash='f9e31' type=&quot;text/javascript&quot;&gt;\n/* &lt;![CDATA[ */!function(){try{var t=&quot;currentScript&quot;in document?document.currentScript:function(){for(var t=document.getElementsByTagName(&quot;script&quot;),e=t.length;e--;)if(t[e].getAttribute(&quot;cf-hash&quot;))return t[e]}();if(t&amp;&amp;t.previousSibling){var e,r,n,i,c=t.previousSibling,a=c.getAttribute(&quot;data-cfemail&quot;);if(a){for(e=&quot;&quot;,r=parseInt(a.substr(0,2),16),n=2;a.length-n;n+=2)i=parseInt(a.substr(n,2),16)^r,e+=String.fromCharCode(i);e=document.createTextNode(e),c.parentNode.replaceChild(e,c)}}}catch(u){}}();/* ]]&gt; */&lt;/script&gt; \nFormat settings, CABAC : Yes \nFormat settings, ReFrames : 4 frames \nDuration : 54mn 55s \nBit rate : 363 Kbps \nMaximum bit rate : 2 498 Kbps \nWidth : 720 pixels \nHeight : 404 pixels \nDisplay aspect ratio : 16:9 \nFrame rate mode : Constant \nStream size : 143 MiB (85%) \nTitle : The Musketeers S01E04 The Good Soldier HDTV x264 AAC ESubs [GWC] \nWriting library : x264 core \n\nAudio \nFormat : AAC \nFormat profile : HE-AAC / LC \nDuration : 54mn 55s \nBit rate mode : Variable \nChannel(s) : 2 channels \nSampling rate : 48.0 KHz / 24.0 KHz \nStream size : 23.6 MiB (14%) \nLanguage : English \n\nText \nFormat : Timed Text \nDuration : 54mn 41s \nStream size : 28.4 KiB (0%) \nTitle : English Subtitle by MemoryOnSmells \nLanguage : English","torrent":{"xt":"urn:btih:fe8c8631f348c08b9749bc896f801a8ffb86f65a","amp;dn":"The+Musketeers+S01E04+The+Good+Soldier+HDTV+x264+AAC+ESubs+%5BGWC%5D","amp;tr":["udp%3A%2F%2Ftracker.openbittorrent.com%3A80","udp%3A%2F%2Fopen.demonii.com%3A1337","udp%3A%2F%2Ftracker.coppersurfer.tk%3A6969","udp%3A%2F%2Fexodus.desync.com%3A6969"],"infoHash":"fe8c8631f348c08b9749bc896f801a8ffb86f65a","infoHashBuffer":{"type":"Buffer","data":[254,140,134,49,243,72,192,139,151,73,188,137,111,128,26,143,251,134,246,90]},"announce":[],"urlList":[]}}